# xmcd
#
# Track frame offsets: 
#        150
#        11238
#        27913
#        41300
#        55163
#        64538
#        78258
#        91925
#        103535
#        117863
#        129988
#        141925
#        153738
#        164013
#        177313
#        187450
#        199513
#        209713
#        230225
#        246063
#
# Disc length: 3450 seconds
#
# Revision: 0
# Processed by: cddbd v1.4PL0 Copyright (c) Steve Scherf et al.
# Submitted via: ExactAudioCopy v0.95a2
#
DISCID=1e0d7814
DTITLE=Andy Williams - Movie Memories And More - Disk 3
DYEAR=1994
DGENRE=Vocal
TTITLE0=Born Free
TTITLE1=Maria
TTITLE2=Almost There
TTITLE3=The Shadow Of Your Smile (Love Theme From The Sandpiper)
TTITLE4=Baby Doll
TTITLE5=Love Theme From The Godfather (Speak Softly Love)
TTITLE6=September Song
TTITLE7=Charade
TTITLE8=A Home Lovin' Man
TTITLE9=It Had To Be You
TTITLE10=The Impossible Dream (The Quest)
TTITLE11=Twlight Time
TTITLE12=Wake Me When It's Over
TTITLE13=Danny Boy
TTITLE14=The Bilbao Song
TTITLE15=Dream
TTITLE16=(In The Summertime) You Don't Want My Love
TTITLE17=Ave Maria
TTITLE18=Battle Hymn Of The Republic
TTITLE19=May Each Day
EXTD=
EXTT0=
EXTT1=
EXTT2=
EXTT3=
EXTT4=
EXTT5=
EXTT6=
EXTT7=
EXTT8=
EXTT9=
EXTT10=
EXTT11=
EXTT12=
EXTT13=
EXTT14=
EXTT15=
EXTT16=
EXTT17=
EXTT18=
EXTT19=
PLAYORDER=
